<mxfile host="app.diagrams.net" modified="2023-01-10T04:09:17.004Z" agent="5.0 (Macintosh; Intel Mac OS X 10_15_7) AppleWebKit/537.36 (KHTML, like Gecko) Chrome/108.0.0.0 Safari/537.36" version="20.8.3" etag="ydE7a4-Kk65QRpRLDkJv" type="github" pages="2">
  <diagram id="VHPRk2_3d451nMIRL2ol" name="電気回路">
    <mxGraphModel dx="481" dy="340" grid="1" gridSize="10" guides="1" tooltips="1" connect="1" arrows="1" fold="1" page="1" pageScale="1" pageWidth="850" pageHeight="1100" math="0" shadow="0">
      <root>
        <mxCell id="0" />
        <mxCell id="1" parent="0" />
        <mxCell id="nGYnb3SqcxXHNx_VlGHe-1" value="Raspberry Pi" style="rounded=1;whiteSpace=wrap;html=1;" vertex="1" parent="1">
          <mxGeometry x="300" y="150" width="160" height="90" as="geometry" />
        </mxCell>
        <mxCell id="6Atb2rlf8WPxGSMtJDjQ-16" style="rounded=0;orthogonalLoop=1;jettySize=auto;html=1;exitX=0.5;exitY=1;exitDx=0;exitDy=0;fontSize=6;startArrow=none;startFill=0;endArrow=none;endFill=0;" edge="1" parent="1" source="nGYnb3SqcxXHNx_VlGHe-2">
          <mxGeometry relative="1" as="geometry">
            <mxPoint x="520" y="180" as="targetPoint" />
            <Array as="points">
              <mxPoint x="290" y="310" />
              <mxPoint x="520" y="310" />
            </Array>
          </mxGeometry>
        </mxCell>
        <mxCell id="nGYnb3SqcxXHNx_VlGHe-2" value="&lt;font style=&quot;font-size: 6px;&quot;&gt;タクトスイッチ&lt;/font&gt;" style="rounded=1;whiteSpace=wrap;html=1;" vertex="1" parent="1">
          <mxGeometry x="265" y="260" width="50" height="30" as="geometry" />
        </mxCell>
        <mxCell id="6Atb2rlf8WPxGSMtJDjQ-2" value="&lt;font style=&quot;font-size: 6px;&quot;&gt;GPIO 2&lt;br&gt;&lt;/font&gt;" style="text;html=1;strokeColor=none;fillColor=none;align=center;verticalAlign=middle;whiteSpace=wrap;rounded=0;fontSize=8;" vertex="1" parent="1">
          <mxGeometry x="300" y="220" width="40" height="20" as="geometry" />
        </mxCell>
        <mxCell id="6Atb2rlf8WPxGSMtJDjQ-3" value="&lt;font style=&quot;font-size: 6px;&quot;&gt;GPIO 3&lt;br&gt;&lt;/font&gt;" style="text;html=1;strokeColor=none;fillColor=none;align=center;verticalAlign=middle;whiteSpace=wrap;rounded=0;fontSize=8;" vertex="1" parent="1">
          <mxGeometry x="340" y="220" width="40" height="20" as="geometry" />
        </mxCell>
        <mxCell id="6Atb2rlf8WPxGSMtJDjQ-4" value="&lt;font style=&quot;font-size: 6px;&quot;&gt;GPIO 4&lt;br&gt;&lt;/font&gt;" style="text;html=1;strokeColor=none;fillColor=none;align=center;verticalAlign=middle;whiteSpace=wrap;rounded=0;fontSize=8;" vertex="1" parent="1">
          <mxGeometry x="380" y="220" width="40" height="20" as="geometry" />
        </mxCell>
        <mxCell id="6Atb2rlf8WPxGSMtJDjQ-5" value="&lt;font style=&quot;font-size: 6px;&quot;&gt;GPIO 5&lt;br&gt;&lt;/font&gt;" style="text;html=1;strokeColor=none;fillColor=none;align=center;verticalAlign=middle;whiteSpace=wrap;rounded=0;fontSize=8;" vertex="1" parent="1">
          <mxGeometry x="420" y="220" width="40" height="20" as="geometry" />
        </mxCell>
        <mxCell id="6Atb2rlf8WPxGSMtJDjQ-17" style="edgeStyle=none;rounded=0;orthogonalLoop=1;jettySize=auto;html=1;exitX=0.5;exitY=1;exitDx=0;exitDy=0;fontSize=6;startArrow=none;startFill=0;endArrow=none;endFill=0;" edge="1" parent="1" source="6Atb2rlf8WPxGSMtJDjQ-6">
          <mxGeometry relative="1" as="geometry">
            <mxPoint x="349.8888888888889" y="310" as="targetPoint" />
          </mxGeometry>
        </mxCell>
        <mxCell id="6Atb2rlf8WPxGSMtJDjQ-6" value="&lt;font style=&quot;font-size: 6px;&quot;&gt;タクトスイッチ&lt;/font&gt;" style="rounded=1;whiteSpace=wrap;html=1;" vertex="1" parent="1">
          <mxGeometry x="325" y="260" width="50" height="30" as="geometry" />
        </mxCell>
        <mxCell id="6Atb2rlf8WPxGSMtJDjQ-18" style="edgeStyle=none;rounded=0;orthogonalLoop=1;jettySize=auto;html=1;exitX=0.5;exitY=1;exitDx=0;exitDy=0;fontSize=6;startArrow=none;startFill=0;endArrow=none;endFill=0;" edge="1" parent="1" source="6Atb2rlf8WPxGSMtJDjQ-7">
          <mxGeometry relative="1" as="geometry">
            <mxPoint x="409.8888888888889" y="310" as="targetPoint" />
          </mxGeometry>
        </mxCell>
        <mxCell id="6Atb2rlf8WPxGSMtJDjQ-7" value="&lt;font style=&quot;font-size: 6px;&quot;&gt;タクトスイッチ&lt;/font&gt;" style="rounded=1;whiteSpace=wrap;html=1;" vertex="1" parent="1">
          <mxGeometry x="385" y="260" width="50" height="30" as="geometry" />
        </mxCell>
        <mxCell id="6Atb2rlf8WPxGSMtJDjQ-19" style="edgeStyle=none;rounded=0;orthogonalLoop=1;jettySize=auto;html=1;exitX=0.5;exitY=1;exitDx=0;exitDy=0;fontSize=6;startArrow=none;startFill=0;endArrow=none;endFill=0;" edge="1" parent="1" source="6Atb2rlf8WPxGSMtJDjQ-8">
          <mxGeometry relative="1" as="geometry">
            <mxPoint x="469.8888888888889" y="310" as="targetPoint" />
          </mxGeometry>
        </mxCell>
        <mxCell id="6Atb2rlf8WPxGSMtJDjQ-8" value="&lt;font style=&quot;font-size: 6px;&quot;&gt;タクトスイッチ&lt;/font&gt;" style="rounded=1;whiteSpace=wrap;html=1;" vertex="1" parent="1">
          <mxGeometry x="445" y="260" width="50" height="30" as="geometry" />
        </mxCell>
        <mxCell id="6Atb2rlf8WPxGSMtJDjQ-9" value="" style="endArrow=none;html=1;rounded=0;fontSize=6;entryX=0.5;entryY=1;entryDx=0;entryDy=0;exitX=0.5;exitY=0;exitDx=0;exitDy=0;" edge="1" parent="1" source="nGYnb3SqcxXHNx_VlGHe-2" target="6Atb2rlf8WPxGSMtJDjQ-2">
          <mxGeometry width="50" height="50" relative="1" as="geometry">
            <mxPoint x="370" y="270" as="sourcePoint" />
            <mxPoint x="420" y="220" as="targetPoint" />
          </mxGeometry>
        </mxCell>
        <mxCell id="6Atb2rlf8WPxGSMtJDjQ-10" value="" style="endArrow=none;html=1;rounded=0;fontSize=6;entryX=0.5;entryY=1;entryDx=0;entryDy=0;exitX=0.5;exitY=0;exitDx=0;exitDy=0;" edge="1" parent="1" source="6Atb2rlf8WPxGSMtJDjQ-6" target="6Atb2rlf8WPxGSMtJDjQ-3">
          <mxGeometry width="50" height="50" relative="1" as="geometry">
            <mxPoint x="300" y="270" as="sourcePoint" />
            <mxPoint x="330" y="250" as="targetPoint" />
          </mxGeometry>
        </mxCell>
        <mxCell id="6Atb2rlf8WPxGSMtJDjQ-11" value="" style="endArrow=none;html=1;rounded=0;fontSize=6;entryX=0.5;entryY=1;entryDx=0;entryDy=0;exitX=0.5;exitY=0;exitDx=0;exitDy=0;" edge="1" parent="1" source="6Atb2rlf8WPxGSMtJDjQ-7" target="6Atb2rlf8WPxGSMtJDjQ-4">
          <mxGeometry width="50" height="50" relative="1" as="geometry">
            <mxPoint x="360" y="270" as="sourcePoint" />
            <mxPoint x="370" y="250" as="targetPoint" />
          </mxGeometry>
        </mxCell>
        <mxCell id="6Atb2rlf8WPxGSMtJDjQ-12" value="" style="endArrow=none;html=1;rounded=0;fontSize=6;entryX=0.5;entryY=1;entryDx=0;entryDy=0;exitX=0.5;exitY=0;exitDx=0;exitDy=0;" edge="1" parent="1" source="6Atb2rlf8WPxGSMtJDjQ-8" target="6Atb2rlf8WPxGSMtJDjQ-5">
          <mxGeometry width="50" height="50" relative="1" as="geometry">
            <mxPoint x="420" y="270" as="sourcePoint" />
            <mxPoint x="410" y="250" as="targetPoint" />
          </mxGeometry>
        </mxCell>
        <mxCell id="6Atb2rlf8WPxGSMtJDjQ-13" value="5V" style="text;html=1;strokeColor=none;fillColor=none;align=center;verticalAlign=middle;whiteSpace=wrap;rounded=0;fontSize=6;" vertex="1" parent="1">
          <mxGeometry x="440" y="170" width="20" height="13.33" as="geometry" />
        </mxCell>
        <mxCell id="6Atb2rlf8WPxGSMtJDjQ-14" value="" style="endArrow=none;html=1;rounded=0;fontSize=6;exitX=1;exitY=0.75;exitDx=0;exitDy=0;" edge="1" parent="1" source="6Atb2rlf8WPxGSMtJDjQ-13">
          <mxGeometry width="50" height="50" relative="1" as="geometry">
            <mxPoint x="410" y="240" as="sourcePoint" />
            <mxPoint x="520" y="180" as="targetPoint" />
          </mxGeometry>
        </mxCell>
      </root>
    </mxGraphModel>
  </diagram>
  <diagram id="eNpPyuPovUUd3XVtNOtj" name="システム構成">
    <mxGraphModel dx="442" dy="312" grid="1" gridSize="10" guides="1" tooltips="1" connect="1" arrows="1" fold="1" page="1" pageScale="1" pageWidth="850" pageHeight="1100" math="0" shadow="0">
      <root>
        <mxCell id="0" />
        <mxCell id="1" parent="0" />
        <mxCell id="RLj1Ze0t6-VjIFBlHJoK-1" value="GCP" style="rounded=1;whiteSpace=wrap;html=1;fontSize=8;" vertex="1" parent="1">
          <mxGeometry x="370" y="140" width="120" height="60" as="geometry" />
        </mxCell>
      </root>
    </mxGraphModel>
  </diagram>
</mxfile>
